<svg width="300" height="60" viewBox="0 0 300 60" fill="none" xmlns="http://www.w3.org/2000/svg">
    <rect width="300" height="60" rx="3" fill="#F8F9F9"/>
    <g clip-path="url(#clip0_0_2443)">
        <path d="M39.0447 37.6156V33.9147C39.0447 33.1196 38.4128 32.4749 37.6334 32.4749H37.2644V18.9638C37.2644 18.8429 37.2049 18.7301 37.1062 18.6635L36.2103 18.0594C35.9757 17.9013 35.663 18.0728 35.663 18.3597V22.699L35.396 21.9643C35.037 20.9762 34.1131 20.3205 33.0802 20.3205H26.9122C25.8731 20.3205 24.9452 20.9838 24.5906 21.9802L24.3348 22.699V18.3597C24.3348 18.0729 24.022 17.9013 23.7874 18.0594L22.8915 18.6635C22.7927 18.7301 22.7332 18.8429 22.7332 18.9637V32.4749H22.3643C21.5849 32.4749 20.953 33.1195 20.953 33.9147V37.6156H20.3517C20.1569 37.6156 19.9989 37.7767 19.9989 37.9756V39.9655C19.9989 40.1643 20.1569 40.3255 20.3517 40.3255H21.8739V41.2793C21.8739 41.6769 22.1898 41.9991 22.5795 41.9991H24.4495C24.8392 41.9991 25.1552 41.6768 25.1552 41.2793V40.3255H34.8426V41.2793C34.8426 41.6769 35.1586 41.9991 35.5483 41.9991H37.4183C37.808 41.9991 38.1239 41.6768 38.1239 41.2793V40.3255H39.6461C39.841 40.3255 39.9989 40.1643 39.9989 39.9655V37.9756C39.9989 37.7768 39.841 37.6156 39.6461 37.6156L39.0447 37.6156ZM24.8023 24.7041H35.1954V28.2507H24.8023V24.7041ZM24.5606 36.6083H23.3552C22.9869 36.6083 22.6884 36.3037 22.6884 35.928V35.9108C22.6884 35.5351 22.9869 35.2305 23.3552 35.2305H24.5606C24.9289 35.2305 25.2274 35.5351 25.2274 35.9108V35.928C25.2275 36.3037 24.9289 36.6083 24.5606 36.6083ZM32.3975 36.8089H27.6003C27.2105 36.8089 26.8946 36.4865 26.8946 36.089V31.5276C26.8946 31.1301 27.2105 30.8078 27.6003 30.8078H32.3975C32.7872 30.8078 33.1031 31.1301 33.1031 31.5276V36.089C33.1031 36.4865 32.7872 36.8089 32.3975 36.8089ZM36.6425 36.6083H35.4371C35.0689 36.6083 34.7703 36.3037 34.7703 35.928V35.9108C34.7703 35.5351 35.0689 35.2305 35.4371 35.2305H36.6425C37.0107 35.2305 37.3094 35.5351 37.3094 35.9108V35.928C37.3094 36.3037 37.0107 36.6083 36.6425 36.6083ZM32.2902 33.4423H27.6963C27.5033 33.4423 27.3469 33.2828 27.3469 33.086V33.0787C27.3469 32.8819 27.5033 32.7224 27.6963 32.7224H32.2902C32.4831 32.7224 32.6395 32.8819 32.6395 33.0787V33.086C32.6395 33.2828 32.4831 33.4423 32.2902 33.4423ZM32.2902 32.0025H27.6963C27.5033 32.0025 27.3469 31.843 27.3469 31.6461V31.6389C27.3469 31.4421 27.5033 31.2826 27.6963 31.2826H32.2902C32.4831 31.2826 32.6395 31.4421 32.6395 31.6389V31.6461C32.6395 31.843 32.4831 32.0025 32.2902 32.0025ZM32.2902 36.322H27.6963C27.5033 36.322 27.3469 36.1625 27.3469 35.9656V35.9584C27.3469 35.7616 27.5033 35.6021 27.6963 35.6021H32.2902C32.4831 35.6021 32.6395 35.7616 32.6395 35.9584V35.9656C32.6395 36.1625 32.4831 36.322 32.2902 36.322ZM32.2902 34.8822H27.6963C27.5033 34.8822 27.3469 34.7226 27.3469 34.5258V34.5186C27.3469 34.3218 27.5033 34.1623 27.6963 34.1623H32.2902C32.4831 34.1623 32.6395 34.3218 32.6395 34.5186V34.5258C32.6395 34.7226 32.4831 34.8822 32.2902 34.8822Z" fill="#3E4C59" fill-opacity="0.4"/>
    </g>
    <path d="M51.1186 35H55.0213C57.3878 35 58.4567 33.8217 58.4567 32.2607C58.4567 30.6847 57.353 29.7947 56.3438 29.7401V29.6406C57.2784 29.402 58.0589 28.7656 58.0589 27.4929C58.0589 25.9865 57.0149 24.8182 54.8473 24.8182H51.1186V35ZM52.6548 33.6825V30.4212H54.9268C56.1598 30.4212 56.9304 31.2166 56.9304 32.1861C56.9304 33.0412 56.3487 33.6825 54.8722 33.6825H52.6548ZM52.6548 29.223V26.1257H54.7528C55.9709 26.1257 56.5526 26.767 56.5526 27.6122C56.5526 28.5966 55.7472 29.223 54.7131 29.223H52.6548ZM61.0991 37.8636C62.3271 37.8636 63.1026 37.2223 63.5451 36.0192L66.7021 27.3786L65.0962 27.3636L63.1623 33.2898H63.0827L61.1488 27.3636H59.5579L62.3519 35.0994L62.168 35.6065C61.7901 36.6207 61.2582 36.7053 60.4428 36.4815L60.0849 37.6996C60.2638 37.7791 60.6516 37.8636 61.0991 37.8636ZM75.0245 35.1541C76.8292 35.1541 77.9975 34.0703 78.1616 32.5838H76.7148C76.5259 33.4091 75.8846 33.8963 75.0344 33.8963C73.7766 33.8963 72.9663 32.8473 72.9663 31.1818C72.9663 29.5462 73.7915 28.517 75.0344 28.517C75.979 28.517 76.5558 29.1136 76.7148 29.8295H78.1616C78.0025 28.2884 76.7447 27.2642 75.0096 27.2642C72.8569 27.2642 71.4648 28.8849 71.4648 31.2166C71.4648 33.5185 72.8072 35.1541 75.0245 35.1541ZM81.9735 35.169C83.2363 35.169 83.9473 34.5277 84.2306 33.956H84.2903V35H85.742V29.929C85.742 27.7067 83.992 27.2642 82.7789 27.2642C81.3968 27.2642 80.1241 27.821 79.627 29.2131L81.024 29.5312C81.2427 28.9893 81.7995 28.4673 82.7988 28.4673C83.7583 28.4673 84.2505 28.9695 84.2505 29.8345V29.8693C84.2505 30.4112 83.6937 30.4013 82.3216 30.5604C80.8748 30.7294 79.3933 31.1072 79.3933 32.8423C79.3933 34.3438 80.5218 35.169 81.9735 35.169ZM82.2967 33.9759C81.4565 33.9759 80.85 33.598 80.85 32.8622C80.85 32.0668 81.5559 31.7834 82.416 31.669C82.8983 31.6044 84.0417 31.4751 84.2555 31.2614V32.2457C84.2555 33.1506 83.5346 33.9759 82.2967 33.9759ZM87.7219 35H89.2085V30.3366C89.2085 29.3374 89.979 28.6165 91.033 28.6165C91.3413 28.6165 91.6893 28.6712 91.8086 28.706V27.2841C91.6594 27.2642 91.3661 27.2493 91.1772 27.2493C90.2823 27.2493 89.5167 27.7564 89.2383 28.5767H89.1587V27.3636H87.7219V35Z" fill="#3E4C59" fill-opacity="0.4"/>
    <defs>
        <clipPath id="clip0_0_2443">
            <rect width="24" height="24" fill="white" transform="translate(18 18)"/>
        </clipPath>
    </defs>
</svg>
