<svg width="300" height="60" viewBox="0 0 300 60" fill="none" xmlns="http://www.w3.org/2000/svg">
    <rect width="300" height="60" rx="3" fill="#F8F9F9"/>
    <path d="M53.0085 24.8182H51.348L55.0121 35H56.7869L60.451 24.8182H58.7905L55.9567 33.1108H55.8423L53.0085 24.8182ZM61.802 35H63.2885V27.3636H61.802V35ZM62.5527 26.1854C63.0648 26.1854 63.4924 25.7876 63.4924 25.3004C63.4924 24.8132 63.0648 24.4105 62.5527 24.4105C62.0357 24.4105 61.6131 24.8132 61.6131 25.3004C61.6131 25.7876 62.0357 26.1854 62.5527 26.1854ZM71.0107 29.228C70.7024 28.0398 69.7727 27.2642 68.1222 27.2642C66.397 27.2642 65.174 28.174 65.174 29.5263C65.174 30.6101 65.8303 31.331 67.2621 31.6491L68.5547 31.9325C69.2905 32.0966 69.6335 32.4247 69.6335 32.902C69.6335 33.4936 69.0021 33.956 68.0277 33.956C67.1378 33.956 66.5661 33.5732 66.3871 32.8224L64.9503 33.0412C65.1989 34.3935 66.3224 35.1541 68.0376 35.1541C69.8821 35.1541 71.1598 34.1747 71.1598 32.7926C71.1598 31.7138 70.4737 31.0476 69.0717 30.7244L67.8587 30.446C67.0185 30.2472 66.6555 29.9638 66.6605 29.4467C66.6555 28.8601 67.2919 28.4425 68.1371 28.4425C69.0618 28.4425 69.4893 28.9545 69.6634 29.4666L71.0107 29.228ZM75.0165 35.169C76.2793 35.169 76.9902 34.5277 77.2736 33.956H77.3333V35H78.785V29.929C78.785 27.7067 77.035 27.2642 75.8219 27.2642C74.4398 27.2642 73.1671 27.821 72.6699 29.2131L74.0669 29.5312C74.2857 28.9893 74.8425 28.4673 75.8418 28.4673C76.8013 28.4673 77.2935 28.9695 77.2935 29.8345V29.8693C77.2935 30.4112 76.7367 30.4013 75.3645 30.5604C73.9178 30.7294 72.4363 31.1072 72.4363 32.8423C72.4363 34.3438 73.5648 35.169 75.0165 35.169ZM75.3397 33.9759C74.4995 33.9759 73.8929 33.598 73.8929 32.8622C73.8929 32.0668 74.5989 31.7834 75.459 31.669C75.9412 31.6044 77.0847 31.4751 77.2985 31.2614V32.2457C77.2985 33.1506 76.5776 33.9759 75.3397 33.9759ZM82.6989 33.608H81.267L81.2173 34.1648C81.103 35.5121 80.7848 36.8693 80.6506 37.4858H81.7045C81.9432 36.8345 82.4702 35.343 82.6243 34.1499L82.6989 33.608ZM88.4585 24.8182V35H89.9201V27.6271H90.0146L93.0174 34.9851H94.2305L97.2333 27.6321H97.3278V35H98.7894V24.8182H96.9251L93.6836 32.733H93.5643L90.3228 24.8182H88.4585ZM103.126 35.169C104.389 35.169 105.1 34.5277 105.383 33.956H105.443V35H106.894V29.929C106.894 27.7067 105.144 27.2642 103.931 27.2642C102.549 27.2642 101.276 27.821 100.779 29.2131L102.176 29.5312C102.395 28.9893 102.952 28.4673 103.951 28.4673C104.911 28.4673 105.403 28.9695 105.403 29.8345V29.8693C105.403 30.4112 104.846 30.4013 103.474 30.5604C102.027 30.7294 100.546 31.1072 100.546 32.8423C100.546 34.3438 101.674 35.169 103.126 35.169ZM103.449 33.9759C102.609 33.9759 102.002 33.598 102.002 32.8622C102.002 32.0668 102.708 31.7834 103.568 31.669C104.051 31.6044 105.194 31.4751 105.408 31.2614V32.2457C105.408 33.1506 104.687 33.9759 103.449 33.9759ZM114.597 29.228C114.288 28.0398 113.359 27.2642 111.708 27.2642C109.983 27.2642 108.76 28.174 108.76 29.5263C108.76 30.6101 109.416 31.331 110.848 31.6491L112.141 31.9325C112.876 32.0966 113.219 32.4247 113.219 32.902C113.219 33.4936 112.588 33.956 111.614 33.956C110.724 33.956 110.152 33.5732 109.973 32.8224L108.536 33.0412C108.785 34.3935 109.908 35.1541 111.624 35.1541C113.468 35.1541 114.746 34.1747 114.746 32.7926C114.746 31.7138 114.06 31.0476 112.658 30.7244L111.445 30.446C110.604 30.2472 110.241 29.9638 110.246 29.4467C110.241 28.8601 110.878 28.4425 111.723 28.4425C112.648 28.4425 113.075 28.9545 113.249 29.4666L114.597 29.228ZM119.945 27.3636H118.379V25.5341H116.892V27.3636H115.774V28.5568H116.892V33.0661C116.887 34.4531 117.946 35.1243 119.119 35.0994C119.592 35.0945 119.91 35.005 120.084 34.9403L119.816 33.7124C119.716 33.7322 119.532 33.777 119.294 33.777C118.811 33.777 118.379 33.6179 118.379 32.7578V28.5568H119.945V27.3636ZM124.798 35.1541C126.464 35.1541 127.642 34.3338 127.98 33.0909L126.573 32.8374C126.305 33.5582 125.658 33.9261 124.813 33.9261C123.54 33.9261 122.685 33.1009 122.646 31.6293H128.075V31.1023C128.075 28.343 126.424 27.2642 124.694 27.2642C122.566 27.2642 121.164 28.8849 121.164 31.2315C121.164 33.603 122.546 35.1541 124.798 35.1541ZM122.651 30.5156C122.71 29.4318 123.496 28.4922 124.704 28.4922C125.857 28.4922 126.613 29.3473 126.618 30.5156H122.651ZM129.724 35H131.21V30.3366C131.21 29.3374 131.981 28.6165 133.035 28.6165C133.343 28.6165 133.691 28.6712 133.811 28.706V27.2841C133.661 27.2642 133.368 27.2493 133.179 27.2493C132.284 27.2493 131.519 27.7564 131.24 28.5767H131.161V27.3636H129.724V35ZM138.04 35.1541C139.845 35.1541 141.013 34.0703 141.177 32.5838H139.73C139.542 33.4091 138.9 33.8963 138.05 33.8963C136.792 33.8963 135.982 32.8473 135.982 31.1818C135.982 29.5462 136.807 28.517 138.05 28.517C138.995 28.517 139.571 29.1136 139.73 29.8295H141.177C141.018 28.2884 139.76 27.2642 138.025 27.2642C135.873 27.2642 134.48 28.8849 134.48 31.2166C134.48 33.5185 135.823 35.1541 138.04 35.1541ZM144.989 35.169C146.252 35.169 146.963 34.5277 147.246 33.956H147.306V35H148.758V29.929C148.758 27.7067 147.008 27.2642 145.795 27.2642C144.412 27.2642 143.14 27.821 142.643 29.2131L144.04 29.5312C144.258 28.9893 144.815 28.4673 145.814 28.4673C146.774 28.4673 147.266 28.9695 147.266 29.8345V29.8693C147.266 30.4112 146.709 30.4013 145.337 30.5604C143.89 30.7294 142.409 31.1072 142.409 32.8423C142.409 34.3438 143.537 35.169 144.989 35.169ZM145.312 33.9759C144.472 33.9759 143.866 33.598 143.866 32.8622C143.866 32.0668 144.572 31.7834 145.432 31.669C145.914 31.6044 147.057 31.4751 147.271 31.2614V32.2457C147.271 33.1506 146.55 33.9759 145.312 33.9759ZM150.738 35H152.224V30.3366C152.224 29.3374 152.995 28.6165 154.049 28.6165C154.357 28.6165 154.705 28.6712 154.824 28.706V27.2841C154.675 27.2642 154.382 27.2493 154.193 27.2493C153.298 27.2493 152.532 27.7564 152.254 28.5767H152.174V27.3636H150.738V35ZM158.696 35.1491C160.088 35.1491 160.635 34.299 160.903 33.8118H161.028V35H162.479V24.8182H160.993V28.6016H160.903C160.635 28.1293 160.128 27.2642 158.706 27.2642C156.861 27.2642 155.504 28.7209 155.504 31.1967C155.504 33.6676 156.841 35.1491 158.696 35.1491ZM159.024 33.8814C157.697 33.8814 157.006 32.7131 157.006 31.1818C157.006 29.6655 157.682 28.527 159.024 28.527C160.322 28.527 161.018 29.5859 161.018 31.1818C161.018 32.7876 160.307 33.8814 159.024 33.8814Z" fill="#3E4C59" fill-opacity="0.4"/>
    <g clip-path="url(#clip0_0_1)">
        <path d="M43 25.6403V24.3746C43 22.9248 41.8247 21.7495 40.3749 21.7495H21.6243C20.1746 21.7495 18.9993 22.9248 18.9993 24.3746V25.6403C18.9993 25.7697 19.1042 25.8747 19.2336 25.8747H42.7656C42.895 25.8747 43 25.7697 43 25.6403Z" fill="#3E4C59" fill-opacity="0.4"/>
        <path d="M18.9993 27.6093V35.6251C18.9993 37.0749 20.1746 38.2502 21.6243 38.2502H40.3749C41.8247 38.2502 43 37.0749 43 35.6251V27.6093C43 27.4799 42.895 27.3749 42.7656 27.3749H19.2336C19.1042 27.3749 18.9993 27.4799 18.9993 27.6093ZM24.9994 33.7501C24.9994 34.1643 24.6636 34.5001 24.2494 34.5001H23.4994C23.0852 34.5001 22.7494 34.1643 22.7494 33.7501V33.0001C22.7494 32.5859 23.0852 32.25 23.4994 32.25H24.2494C24.6636 32.25 24.9994 32.5859 24.9994 33.0001V33.7501Z" fill="#3E4C59" fill-opacity="0.4"/>
    </g>
    <defs>
        <clipPath id="clip0_0_1">
            <rect width="24" height="24" fill="white" transform="translate(19 18)"/>
        </clipPath>
    </defs>
</svg>