<svg width="300" height="60" viewBox="0 0 300 60" fill="none" xmlns="http://www.w3.org/2000/svg">
<rect width="300" height="60" rx="3" fill="#F8F9F9"/>
<path d="M18 22.7083V37.2899H42V22.7083H18ZM30 35.3899C27.0224 35.3899 24.6104 32.9755 24.6104 29.9987C24.6104 27.0218 27.0232 24.6082 30 24.6082C32.9768 24.6082 35.3888 27.0218 35.3888 29.9987C35.3888 32.9755 32.9784 35.3899 30 35.3899Z" fill="#3E4C59" fill-opacity="0.4"/>
<path d="M31.7036 29.9077C31.4444 29.7292 30.9524 29.5388 30.226 29.3357V27.0524C30.6571 27.0684 30.9715 27.2333 31.1692 27.55C31.2756 27.722 31.3396 27.9267 31.3603 28.1644H32.1811C32.1644 27.634 31.9916 27.2077 31.6588 26.8852C31.326 26.562 30.8468 26.3796 30.226 26.3349V25.7204H29.7803V26.3436C29.1523 26.35 28.6635 26.5436 28.3147 26.926C27.9659 27.3076 27.7924 27.7355 27.7924 28.21C27.7924 28.742 27.9539 29.158 28.2772 29.4572C28.6004 29.7572 29.102 29.9716 29.7804 30.0995V32.6555C29.2516 32.6115 28.89 32.4131 28.6948 32.0603C28.5837 31.8635 28.5156 31.5507 28.4916 31.1228H27.6619C27.6619 31.6604 27.7499 32.0859 27.9283 32.4028C28.254 32.986 28.8715 33.3091 29.7803 33.3684V34.2787H30.226V33.3684C30.7916 33.306 31.2244 33.1788 31.5243 32.9852C32.066 32.6348 32.3355 32.0436 32.3355 31.2123C32.3356 30.6357 32.1252 30.2013 31.7036 29.9077ZM29.7812 29.2476C29.4309 29.1788 29.1532 29.0564 28.9469 28.882C28.7405 28.7068 28.6373 28.4643 28.6373 28.1548C28.6373 27.8988 28.7245 27.6532 28.8989 27.4187C29.0749 27.1843 29.3686 27.0595 29.7812 27.0436V29.2476ZM31.3325 32.0932C31.1292 32.4588 30.7605 32.654 30.2261 32.6788V30.2124C30.6157 30.3189 30.8948 30.43 31.0604 30.55C31.3468 30.7541 31.4924 31.05 31.4924 31.4412C31.4924 31.6876 31.4388 31.906 31.3325 32.0932Z" fill="#3E4C59" fill-opacity="0.4"/>
<path d="M59.5753 28.1293C59.2273 25.9517 57.522 24.679 55.3693 24.679C52.7344 24.679 50.7905 26.6527 50.7905 29.9091C50.7905 33.1655 52.7244 35.1392 55.3693 35.1392C57.6065 35.1392 59.2422 33.7372 59.5753 31.7237L58.0241 31.7188C57.7607 33.0213 56.6669 33.7372 55.3793 33.7372C53.6342 33.7372 52.3168 32.3999 52.3168 29.9091C52.3168 27.4382 53.6293 26.081 55.3842 26.081C56.6818 26.081 57.7706 26.8118 58.0241 28.1293H59.5753ZM63.5165 35.169C64.7793 35.169 65.4902 34.5277 65.7736 33.956H65.8333V35H67.285V29.929C67.285 27.7067 65.535 27.2642 64.3219 27.2642C62.9398 27.2642 61.6671 27.821 61.1699 29.2131L62.5669 29.5312C62.7857 28.9893 63.3425 28.4673 64.3418 28.4673C65.3013 28.4673 65.7935 28.9695 65.7935 29.8345V29.8693C65.7935 30.4112 65.2367 30.4013 63.8645 30.5604C62.4178 30.7294 60.9363 31.1072 60.9363 32.8423C60.9363 34.3438 62.0648 35.169 63.5165 35.169ZM63.8397 33.9759C62.9995 33.9759 62.3929 33.598 62.3929 32.8622C62.3929 32.0668 63.0989 31.7834 63.959 31.669C64.4412 31.6044 65.5847 31.4751 65.7985 31.2614V32.2457C65.7985 33.1506 65.0776 33.9759 63.8397 33.9759ZM74.9872 29.228C74.679 28.0398 73.7493 27.2642 72.0987 27.2642C70.3736 27.2642 69.1506 28.174 69.1506 29.5263C69.1506 30.6101 69.8068 31.331 71.2386 31.6491L72.5312 31.9325C73.267 32.0966 73.6101 32.4247 73.6101 32.902C73.6101 33.4936 72.9787 33.956 72.0043 33.956C71.1143 33.956 70.5426 33.5732 70.3636 32.8224L68.9268 33.0412C69.1754 34.3935 70.299 35.1541 72.0142 35.1541C73.8587 35.1541 75.1364 34.1747 75.1364 32.7926C75.1364 31.7138 74.4503 31.0476 73.0483 30.7244L71.8352 30.446C70.995 30.2472 70.6321 29.9638 70.6371 29.4467C70.6321 28.8601 71.2685 28.4425 72.1136 28.4425C73.0384 28.4425 73.4659 28.9545 73.6399 29.4666L74.9872 29.228ZM78.2573 30.4659C78.2573 29.2479 79.0279 28.5518 80.0868 28.5518C81.111 28.5518 81.7225 29.2031 81.7225 30.3217V35H83.209V30.1428C83.209 28.2386 82.165 27.2642 80.5939 27.2642C79.4057 27.2642 78.6898 27.7812 78.3319 28.6065H78.2374V24.8182H76.7708V35H78.2573V30.4659Z" fill="#3E4C59" fill-opacity="0.4"/>
</svg>
