<svg width="56" height="24" viewBox="0 0 56 24" fill="none" xmlns="http://www.w3.org/2000/svg">
<path d="M13.4135 5.81001C13.4135 5.36337 13.0502 5 12.6035 5H11.3948C10.9482 5 10.5848 5.36337 10.5848 5.81001V7.02101H13.4135V5.81001Z" fill="#3E4C59"/>
<path d="M12.1154 10.0693L16.8106 11.2961V8.26843C16.8106 8.09901 16.6728 7.96118 16.5034 7.96118H7.49023C7.32081 7.96118 7.18298 8.09901 7.18298 8.26843V11.2961L11.8782 10.0693C11.9559 10.049 12.0376 10.049 12.1154 10.0693Z" fill="#3E4C59"/>
<path d="M19.5394 18.0551C19.0215 18.0551 18.7879 17.9388 18.4921 17.7915C18.3532 17.7223 18.2068 17.6494 18.0321 17.5873C17.7895 17.5011 17.4922 17.4357 17.0848 17.43L18.8028 13.1052C18.8408 13.0025 18.8104 12.917 18.7887 12.875C18.7669 12.8326 18.7142 12.7574 18.6069 12.7293L12.0005 11.0032L5.39416 12.7293C5.28674 12.7574 5.23409 12.8326 5.21229 12.875C5.19061 12.917 5.16017 13.0026 5.19831 13.1053L6.91245 17.43C6.50522 17.4362 6.20823 17.502 5.9658 17.5885C5.79253 17.6504 5.64704 17.7228 5.50906 17.7915C5.21323 17.9388 4.97959 18.0552 4.46166 18.0552C4.20252 18.0552 3.99243 18.2652 3.99243 18.5244C3.99243 18.7835 4.20252 18.9936 4.46166 18.9936C5.20028 18.9936 5.58654 18.8013 5.92732 18.6316C6.06012 18.5655 6.18052 18.5058 6.31956 18.4598C6.49033 18.4034 6.68925 18.368 6.97473 18.368C7.03989 18.368 7.10051 18.3698 7.15738 18.3734C7.5524 18.3978 7.76352 18.5029 8.02213 18.6316C8.36291 18.8013 8.74918 18.9936 9.4878 18.9936C10.2264 18.9936 10.6126 18.8013 10.9534 18.6316C11.2492 18.4844 11.4829 18.368 12.0007 18.368C12.5186 18.368 12.7522 18.4843 13.048 18.6316C13.3888 18.8013 13.775 18.9936 14.5136 18.9936C15.2522 18.9936 15.6385 18.8013 15.9792 18.6316C16.2387 18.5025 16.4503 18.3972 16.8477 18.3732C16.9035 18.3698 16.9628 18.368 17.0265 18.368C17.3089 18.368 17.5065 18.4028 17.676 18.4581C17.8174 18.5042 17.9393 18.5647 18.0738 18.6316C18.4146 18.8013 18.8008 18.9936 19.5394 18.9936C19.7986 18.9936 20.0087 18.7835 20.0087 18.5244C20.0087 18.2653 19.7985 18.0551 19.5394 18.0551ZM7.66245 13.4045L11.8819 12.302C11.9596 12.2817 12.0413 12.2817 12.1191 12.302L16.3385 13.4045C16.5893 13.47 16.7394 13.7264 16.6739 13.9771C16.6188 14.1881 16.4285 14.3278 16.2203 14.3278C16.181 14.3278 16.1411 14.3228 16.1013 14.3125L12.0005 13.241L7.89969 14.3125C7.64897 14.378 7.39259 14.2278 7.32708 13.9771C7.26158 13.7264 7.41173 13.47 7.66245 13.4045Z" fill="#3E4C59"/>
<path d="M37.7188 9.56534H38.9886C38.9503 8.16761 37.7145 7.15341 35.9418 7.15341C34.1903 7.15341 32.848 8.15483 32.848 9.65909C32.848 10.8736 33.7173 11.5852 35.1193 11.9645L36.1506 12.2457C37.0838 12.4929 37.804 12.7997 37.804 13.5753C37.804 14.4276 36.9901 14.9901 35.8693 14.9901C34.8551 14.9901 34.0114 14.5384 33.9347 13.5881H32.6136C32.6989 15.169 33.9219 16.1449 35.8778 16.1449C37.9276 16.1449 39.108 15.0668 39.108 13.5881C39.108 12.0156 37.706 11.4062 36.598 11.1335L35.7457 10.9119C35.0639 10.7372 34.1562 10.4176 34.1605 9.58239C34.1605 8.84091 34.8381 8.29119 35.9119 8.29119C36.9134 8.29119 37.625 8.75994 37.7188 9.56534ZM40.6815 16H46.2042V14.8665H41.9982V12.1946H45.8675V11.0653H41.9982V8.40625H46.1531V7.27273H40.6815V16ZM48.6491 16L49.4503 13.6903H52.8594L53.6562 16H55.054L51.9134 7.27273H50.392L47.2514 16H48.6491ZM49.8338 12.5824L51.1207 8.85795H51.1889L52.4759 12.5824H49.8338Z" fill="#3E4C59"/>
</svg>
