<svg width="52" height="24" viewBox="0 0 52 24" fill="none" xmlns="http://www.w3.org/2000/svg">
<path d="M7.15008 16.6532L5.21325 15.5861L5.41597 15.3834L7.13525 15.6178L7.38099 15.6513L7.55637 15.476L10.6676 12.3647L11.1504 11.8819L10.5444 11.5673L5.27028 8.83013L5.72427 8.37615L12.7501 9.95336L13.0186 10.0136L13.2132 9.81906L16.3245 6.7078C16.6032 6.4291 17.0396 6.43295 17.3032 6.69664C17.5669 6.96032 17.5708 7.39673 17.2921 7.67542L14.1808 10.7867L13.9862 10.9813L14.0465 11.2498L15.6238 18.2756L15.1698 18.7296L12.4326 13.4555L12.1181 12.8494L11.6352 13.3323L8.52396 16.4435L8.34859 16.6189L8.3821 16.8647L8.61655 18.5839L8.41383 18.7867L7.34673 16.8499L7.27687 16.7231L7.15008 16.6532Z" fill="#3E4C59" stroke="#3E4C59"/>
<path d="M33.696 16L34.4972 13.6903H37.9062L38.7031 16H40.1009L36.9602 7.27273H35.4389L32.2983 16H33.696ZM34.8807 12.5824L36.1676 8.85795H36.2358L37.5227 12.5824H34.8807ZM42.6779 7.27273H41.3612V16H42.6779V7.27273ZM44.5955 16H45.9123V12.6974H47.7021C47.7319 12.6974 47.7575 12.6974 47.7873 12.6974L49.56 16H51.06L49.1254 12.4673C50.195 12.071 50.7276 11.1804 50.7276 10.0085C50.7276 8.40199 49.7305 7.27273 47.7063 7.27273H44.5955V16ZM45.9123 11.5639V8.40199H47.5657C48.8654 8.40199 49.4023 9.01989 49.4023 10.0085C49.4023 10.9929 48.8654 11.5639 47.5827 11.5639H45.9123Z" fill="#3E4C59"/>
</svg>
