<svg width="300" height="60" viewBox="0 0 300 60" fill="none" xmlns="http://www.w3.org/2000/svg">
<rect width="300" height="60" rx="3" fill="#FEF5E7"/>
<g clip-path="url(#clip0_0_2719)">
<path d="M40.5 21.75H19.5C18.6735 21.75 18 22.4235 18 23.25V36.75C18 37.578 18.6735 38.25 19.5 38.25H40.5C41.328 38.25 42 37.578 42 36.75V23.25C42 22.4235 41.328 21.75 40.5 21.75ZM26.2605 25.377C26.3205 25.0155 26.6325 24.75 27 24.75H30.351C30.996 24.75 31.611 25.0275 32.0385 25.5105C32.466 25.995 32.664 26.6385 32.5845 27.279C32.4435 28.4025 31.4835 29.25 30.351 29.25H28.5C28.1325 29.25 27.8205 29.5155 27.7605 29.877L27.1155 33.75H24.8655L26.2605 25.377ZM35.5545 29.7495C35.313 31.1985 34.068 32.25 32.595 32.25H30.6345L29.9895 36.123C29.9295 36.4845 29.6175 36.75 29.25 36.75H27C26.7795 36.75 26.5695 36.654 26.427 36.483C26.2845 36.315 26.223 36.0915 26.2605 35.874L26.367 35.25H27.75C28.1175 35.25 28.4295 34.9845 28.4895 34.623L29.1345 30.75H30.351C32.238 30.75 33.837 29.3385 34.071 27.465C34.104 27.201 34.1085 26.9355 34.0845 26.6745C35.1495 27.2775 35.7675 28.4865 35.5545 29.7495Z" fill="#EE950F" fill-opacity="1.0"/>
</g>
<path d="M51.1186 35H52.6548V31.4205H54.7429C57.1044 31.4205 58.2727 29.9936 58.2727 28.1143C58.2727 26.2401 57.1143 24.8182 54.7479 24.8182H51.1186V35ZM52.6548 30.1179V26.1357H54.5838C56.1051 26.1357 56.7266 26.9609 56.7266 28.1143C56.7266 29.2678 56.1051 30.1179 54.6037 30.1179H52.6548ZM62.1083 35.169C63.3711 35.169 64.082 34.5277 64.3654 33.956H64.4251V35H65.8768V29.929C65.8768 27.7067 64.1268 27.2642 62.9137 27.2642C61.5316 27.2642 60.2589 27.821 59.7617 29.2131L61.1587 29.5312C61.3775 28.9893 61.9343 28.4673 62.9336 28.4673C63.8931 28.4673 64.3853 28.9695 64.3853 29.8345V29.8693C64.3853 30.4112 63.8285 30.4013 62.4563 30.5604C61.0096 30.7294 59.5281 31.1072 59.5281 32.8423C59.5281 34.3438 60.6566 35.169 62.1083 35.169ZM62.4315 33.9759C61.5913 33.9759 60.9847 33.598 60.9847 32.8622C60.9847 32.0668 61.6907 31.7834 62.5508 31.669C63.033 31.6044 64.1765 31.4751 64.3903 31.2614V32.2457C64.3903 33.1506 63.6694 33.9759 62.4315 33.9759ZM69.3432 24.8182H67.8567V35H69.3432V24.8182ZM72.2827 37.8636C73.5107 37.8636 74.2862 37.2223 74.7287 36.0192L77.8857 27.3786L76.2798 27.3636L74.3459 33.2898H74.2663L72.3324 27.3636H70.7415L73.5355 35.0994L73.3516 35.6065C72.9737 36.6207 72.4418 36.7053 71.6264 36.4815L71.2685 37.6996C71.4474 37.7791 71.8352 37.8636 72.2827 37.8636ZM79.2864 37.8636H80.7729V33.8118H80.8624C81.1309 34.299 81.6777 35.1491 83.0698 35.1491C84.9192 35.1491 86.2615 33.6676 86.2615 31.1967C86.2615 28.7209 84.8993 27.2642 83.0549 27.2642C81.638 27.2642 81.1259 28.1293 80.8624 28.6016H80.7381V27.3636H79.2864V37.8636ZM80.7431 31.1818C80.7431 29.5859 81.4391 28.527 82.7367 28.527C84.084 28.527 84.7601 29.6655 84.7601 31.1818C84.7601 32.7131 84.0641 33.8814 82.7367 33.8814C81.459 33.8814 80.7431 32.7876 80.7431 31.1818ZM90.1493 35.169C91.4121 35.169 92.123 34.5277 92.4064 33.956H92.4661V35H93.9178V29.929C93.9178 27.7067 92.1678 27.2642 90.9547 27.2642C89.5726 27.2642 88.2999 27.821 87.8027 29.2131L89.1998 29.5312C89.4185 28.9893 89.9753 28.4673 90.9746 28.4673C91.9341 28.4673 92.4263 28.9695 92.4263 29.8345V29.8693C92.4263 30.4112 91.8695 30.4013 90.4973 30.5604C89.0506 30.7294 87.5691 31.1072 87.5691 32.8423C87.5691 34.3438 88.6976 35.169 90.1493 35.169ZM90.4725 33.9759C89.6323 33.9759 89.0257 33.598 89.0257 32.8622C89.0257 32.0668 89.7317 31.7834 90.5918 31.669C91.074 31.6044 92.2175 31.4751 92.4313 31.2614V32.2457C92.4313 33.1506 91.7104 33.9759 90.4725 33.9759ZM97.3842 24.8182H95.8977V35H97.3842V24.8182Z" fill="#EE950F" fill-opacity="1.0"/>
<path d="M270 18C263.383 18 258 23.3829 258 30C258 36.6171 263.383 42 270 42C276.617 42 282 36.6171 282 30C282 23.3829 276.617 18 270 18Z" fill="#EE950F"/>
<path d="M276.082 27.4565L269.581 33.9564C269.386 34.1514 269.13 34.2495 268.875 34.2495C268.619 34.2495 268.363 34.1514 268.168 33.9564L264.918 30.7065C264.526 30.3155 264.526 29.6834 264.918 29.2925C265.309 28.9014 265.94 28.9014 266.332 29.2925L268.875 31.8355L274.668 26.0426C275.059 25.6515 275.69 25.6515 276.082 26.0426C276.472 26.4335 276.472 27.0654 276.082 27.4565V27.4565Z" fill="#FAFAFA"/>
<defs>
<clipPath id="clip0_0_2719">
<rect width="24" height="24" fill="white" transform="translate(18 18)"/>
</clipPath>
</defs>
</svg>
