<svg width="300" height="60" viewBox="0 0 300 60" fill="none" xmlns="http://www.w3.org/2000/svg">
    <rect width="300" height="60" rx="3" fill="#F8F9F9"/>
    <g clip-path="url(#clip0_0_2420)">
        <path  d="M22.5152 37.3013L19.3508 35.5578L19.9669 34.9417L22.6436 35.3067L22.8894 35.3402L23.0647 35.1648L27.6919 30.5376L28.1747 30.0548L27.5687 29.7403L19.4295 25.5161L20.4348 24.5109L31.0148 26.886L31.2832 26.9462L31.4778 26.7517L36.105 22.1245C36.6125 21.617 37.4158 21.6184 37.9052 22.1079C38.3947 22.5973 38.3961 23.4006 37.8886 23.9081L33.2614 28.5353L33.0669 28.7299L33.1271 28.9984L35.5022 39.5784L34.497 40.5836L30.2729 32.4444L29.9584 31.8384L29.4755 32.3212L24.8483 36.9484L24.6729 37.1238L24.7065 37.3695L25.0715 40.0462L24.4553 40.6624L22.7119 37.498L22.642 37.3712L22.5152 37.3013Z" fill="#3E4C59" fill-opacity="0.4" />
    </g>
    <path  d="M51.1186 35H55.0213C57.3878 35 58.4567 33.8217 58.4567 32.2607C58.4567 30.6847 57.353 29.7947 56.3438 29.7401V29.6406C57.2784 29.402 58.0589 28.7656 58.0589 27.4929C58.0589 25.9865 57.0149 24.8182 54.8473 24.8182H51.1186V35ZM52.6548 33.6825V30.4212H54.9268C56.1598 30.4212 56.9304 31.2166 56.9304 32.1861C56.9304 33.0412 56.3487 33.6825 54.8722 33.6825H52.6548ZM52.6548 29.223V26.1257H54.7528C55.9709 26.1257 56.5526 26.767 56.5526 27.6122C56.5526 28.5966 55.7472 29.223 54.7131 29.223H52.6548ZM61.0991 37.8636C62.3271 37.8636 63.1026 37.2223 63.5451 36.0192L66.7021 27.3786L65.0962 27.3636L63.1623 33.2898H63.0827L61.1488 27.3636H59.5579L62.3519 35.0994L62.168 35.6065C61.7901 36.6207 61.2582 36.7053 60.4428 36.4815L60.0849 37.6996C60.2638 37.7791 60.6516 37.8636 61.0991 37.8636ZM74.0302 35.169C75.293 35.169 76.0039 34.5277 76.2873 33.956H76.3469V35H77.7987V29.929C77.7987 27.7067 76.0487 27.2642 74.8356 27.2642C73.4535 27.2642 72.1808 27.821 71.6836 29.2131L73.0806 29.5312C73.2994 28.9893 73.8562 28.4673 74.8555 28.4673C75.815 28.4673 76.3072 28.9695 76.3072 29.8345V29.8693C76.3072 30.4112 75.7504 30.4013 74.3782 30.5604C72.9315 30.7294 71.4499 31.1072 71.4499 32.8423C71.4499 34.3438 72.5785 35.169 74.0302 35.169ZM74.3533 33.9759C73.5131 33.9759 72.9066 33.598 72.9066 32.8622C72.9066 32.0668 73.6126 31.7834 74.4727 31.669C74.9549 31.6044 76.0984 31.4751 76.3121 31.2614V32.2457C76.3121 33.1506 75.5913 33.9759 74.3533 33.9759ZM79.7786 35H81.2651V27.3636H79.7786V35ZM80.5293 26.1854C81.0414 26.1854 81.4689 25.7876 81.4689 25.3004C81.4689 24.8132 81.0414 24.4105 80.5293 24.4105C80.0123 24.4105 79.5897 24.8132 79.5897 25.3004C79.5897 25.7876 80.0123 26.1854 80.5293 26.1854ZM83.2649 35H84.7514V30.3366C84.7514 29.3374 85.522 28.6165 86.576 28.6165C86.8842 28.6165 87.2322 28.6712 87.3516 28.706V27.2841C87.2024 27.2642 86.9091 27.2493 86.7202 27.2493C85.8253 27.2493 85.0597 27.7564 84.7812 28.5767H84.7017V27.3636H83.2649V35ZM95.9077 27.3636H94.3416V25.5341H92.8551V27.3636H91.7365V28.5568H92.8551V33.0661C92.8501 34.4531 93.9091 35.1243 95.0824 35.0994C95.5547 35.0945 95.8729 35.005 96.0469 34.9403L95.7784 33.7124C95.679 33.7322 95.495 33.777 95.2564 33.777C94.7741 33.777 94.3416 33.6179 94.3416 32.7578V28.5568H95.9077V27.3636ZM97.552 35H99.0385V30.3366C99.0385 29.3374 99.8091 28.6165 100.863 28.6165C101.171 28.6165 101.519 28.6712 101.639 28.706V27.2841C101.49 27.2642 101.196 27.2493 101.007 27.2493C100.112 27.2493 99.3468 27.7564 99.0684 28.5767H98.9888V27.3636H97.552V35ZM105.079 35.169C106.342 35.169 107.053 34.5277 107.336 33.956H107.396V35H108.847V29.929C108.847 27.7067 107.097 27.2642 105.884 27.2642C104.502 27.2642 103.23 27.821 102.732 29.2131L104.129 29.5312C104.348 28.9893 104.905 28.4673 105.904 28.4673C106.864 28.4673 107.356 28.9695 107.356 29.8345V29.8693C107.356 30.4112 106.799 30.4013 105.427 30.5604C103.98 30.7294 102.499 31.1072 102.499 32.8423C102.499 34.3438 103.627 35.169 105.079 35.169ZM105.402 33.9759C104.562 33.9759 103.955 33.598 103.955 32.8622C103.955 32.0668 104.661 31.7834 105.521 31.669C106.004 31.6044 107.147 31.4751 107.361 31.2614V32.2457C107.361 33.1506 106.64 33.9759 105.402 33.9759ZM112.314 30.4659C112.314 29.2479 113.06 28.5518 114.094 28.5518C115.103 28.5518 115.714 29.2131 115.714 30.3217V35H117.201V30.1428C117.201 28.2536 116.162 27.2642 114.601 27.2642C113.452 27.2642 112.702 27.7962 112.349 28.6065H112.254V27.3636H110.827V35H112.314V30.4659ZM124.917 29.228C124.609 28.0398 123.679 27.2642 122.028 27.2642C120.303 27.2642 119.08 28.174 119.08 29.5263C119.08 30.6101 119.737 31.331 121.168 31.6491L122.461 31.9325C123.197 32.0966 123.54 32.4247 123.54 32.902C123.54 33.4936 122.908 33.956 121.934 33.956C121.044 33.956 120.472 33.5732 120.293 32.8224L118.857 33.0412C119.105 34.3935 120.229 35.1541 121.944 35.1541C123.788 35.1541 125.066 34.1747 125.066 32.7926C125.066 31.7138 124.38 31.0476 122.978 30.7244L121.765 30.446C120.925 30.2472 120.562 29.9638 120.567 29.4467C120.562 28.8601 121.198 28.4425 122.043 28.4425C122.968 28.4425 123.396 28.9545 123.57 29.4666L124.917 29.228ZM126.7 37.8636H128.187V33.8118H128.276C128.545 34.299 129.092 35.1491 130.484 35.1491C132.333 35.1491 133.676 33.6676 133.676 31.1967C133.676 28.7209 132.313 27.2642 130.469 27.2642C129.052 27.2642 128.54 28.1293 128.276 28.6016H128.152V27.3636H126.7V37.8636ZM128.157 31.1818C128.157 29.5859 128.853 28.527 130.151 28.527C131.498 28.527 132.174 29.6655 132.174 31.1818C132.174 32.7131 131.478 33.8814 130.151 33.8814C128.873 33.8814 128.157 32.7876 128.157 31.1818ZM138.558 35.1541C140.71 35.1541 142.117 33.5781 142.117 31.2166C142.117 28.8402 140.71 27.2642 138.558 27.2642C136.405 27.2642 134.998 28.8402 134.998 31.2166C134.998 33.5781 136.405 35.1541 138.558 35.1541ZM138.563 33.9062C137.156 33.9062 136.499 32.6783 136.499 31.2116C136.499 29.75 137.156 28.5071 138.563 28.5071C139.96 28.5071 140.616 29.75 140.616 31.2116C140.616 32.6783 139.96 33.9062 138.563 33.9062ZM143.777 35H145.263V30.3366C145.263 29.3374 146.034 28.6165 147.088 28.6165C147.396 28.6165 147.744 28.6712 147.863 28.706V27.2841C147.714 27.2642 147.421 27.2493 147.232 27.2493C146.337 27.2493 145.571 27.7564 145.293 28.5767H145.213V27.3636H143.777V35ZM153.165 27.3636H151.599V25.5341H150.113V27.3636H148.994V28.5568H150.113V33.0661C150.108 34.4531 151.167 35.1243 152.34 35.0994C152.812 35.0945 153.131 35.005 153.305 34.9403L153.036 33.7124C152.937 33.7322 152.753 33.777 152.514 33.777C152.032 33.777 151.599 33.6179 151.599 32.7578V28.5568H153.165V27.3636Z" fill="#3E4C59" fill-opacity="0.4"/>

    <defs>
        <clipPath id="clip0_0_2420">
            <rect width="24" height="24" fill="white" transform="translate(18 18)"/>
        </clipPath>
    </defs>
</svg>
