<svg width="300" height="60" viewBox="0 0 300 60" fill="none" xmlns="http://www.w3.org/2000/svg">
    <rect width="300" height="60" rx="3" fill="#FEF5E7"/>
    <path d="M51.1186 35H55.0213C57.3878 35 58.4567 33.8217 58.4567 32.2607C58.4567 30.6847 57.353 29.7947 56.3438 29.7401V29.6406C57.2784 29.402 58.0589 28.7656 58.0589 27.4929C58.0589 25.9865 57.0149 24.8182 54.8473 24.8182H51.1186V35ZM52.6548 33.6825V30.4212H54.9268C56.1598 30.4212 56.9304 31.2166 56.9304 32.1861C56.9304 33.0412 56.3487 33.6825 54.8722 33.6825H52.6548ZM52.6548 29.223V26.1257H54.7528C55.9709 26.1257 56.5526 26.767 56.5526 27.6122C56.5526 28.5966 55.7472 29.223 54.7131 29.223H52.6548ZM61.0991 37.8636C62.3271 37.8636 63.1026 37.2223 63.5451 36.0192L66.7021 27.3786L65.0962 27.3636L63.1623 33.2898H63.0827L61.1488 27.3636H59.5579L62.3519 35.0994L62.168 35.6065C61.7901 36.6207 61.2582 36.7053 60.4428 36.4815L60.0849 37.6996C60.2638 37.7791 60.6516 37.8636 61.0991 37.8636ZM77.5302 29.228C77.2219 28.0398 76.2923 27.2642 74.6417 27.2642C72.9165 27.2642 71.6935 28.174 71.6935 29.5263C71.6935 30.6101 72.3498 31.331 73.7816 31.6491L75.0742 31.9325C75.81 32.0966 76.1531 32.4247 76.1531 32.902C76.1531 33.4936 75.5217 33.956 74.5472 33.956C73.6573 33.956 73.0856 33.5732 72.9066 32.8224L71.4698 33.0412C71.7184 34.3935 72.842 35.1541 74.5572 35.1541C76.4016 35.1541 77.6793 34.1747 77.6793 32.7926C77.6793 31.7138 76.9933 31.0476 75.5913 30.7244L74.3782 30.446C73.538 30.2472 73.1751 29.9638 73.18 29.4467C73.1751 28.8601 73.8114 28.4425 74.6566 28.4425C75.5813 28.4425 76.0089 28.9545 76.1829 29.4666L77.5302 29.228ZM82.6049 35.1541C84.2704 35.1541 85.4487 34.3338 85.7868 33.0909L84.3798 32.8374C84.1113 33.5582 83.465 33.9261 82.6199 33.9261C81.3471 33.9261 80.492 33.1009 80.4522 31.6293H85.8812V31.1023C85.8812 28.343 84.2306 27.2642 82.5005 27.2642C80.3727 27.2642 78.9707 28.8849 78.9707 31.2315C78.9707 33.603 80.3528 35.1541 82.6049 35.1541ZM80.4572 30.5156C80.5169 29.4318 81.3024 28.4922 82.5105 28.4922C83.6639 28.4922 84.4196 29.3473 84.4245 30.5156H80.4572ZM89.7528 35.169C91.0156 35.169 91.7266 34.5277 92.0099 33.956H92.0696V35H93.5213V29.929C93.5213 27.7067 91.7713 27.2642 90.5582 27.2642C89.1761 27.2642 87.9034 27.821 87.4062 29.2131L88.8033 29.5312C89.022 28.9893 89.5788 28.4673 90.5781 28.4673C91.5376 28.4673 92.0298 28.9695 92.0298 29.8345V29.8693C92.0298 30.4112 91.473 30.4013 90.1009 30.5604C88.6541 30.7294 87.1726 31.1072 87.1726 32.8423C87.1726 34.3438 88.3011 35.169 89.7528 35.169ZM90.076 33.9759C89.2358 33.9759 88.6293 33.598 88.6293 32.8622C88.6293 32.0668 89.3352 31.7834 90.1953 31.669C90.6776 31.6044 91.821 31.4751 92.0348 31.2614V32.2457C92.0348 33.1506 91.3139 33.9759 90.076 33.9759Z" fill="#EE950F" fill-opacity="1.0"/>
    <g clip-path="url(#clip0_0_2432)">
        <path d="M32.1166 20.7259C32.1166 20.0566 31.5721 19.5121 30.9028 19.5121H29.0915C28.4222 19.5121 27.8777 20.0566 27.8777 20.7259V22.5407H32.1166V20.7259Z" fill="#EE950F" fill-opacity="1.0"/>
        <path d="M30.1721 27.1077L37.2081 28.9461V24.4089C37.2081 24.155 37.0016 23.9485 36.7477 23.9485H23.2411C22.9872 23.9485 22.7807 24.155 22.7807 24.4089V28.9461L29.8167 27.1077C29.9332 27.0772 30.0556 27.0772 30.1721 27.1077Z" fill="#EE950F" fill-opacity="1.0"/>
        <path d="M41.2967 39.0762C40.5207 39.0762 40.1706 38.9018 39.7274 38.6811C39.5193 38.5775 39.2998 38.4682 39.038 38.3752C38.6744 38.2459 38.2289 38.1479 37.6185 38.1393L40.1929 31.6585C40.2499 31.5046 40.2044 31.3765 40.1719 31.3135C40.1392 31.25 40.0603 31.1373 39.8993 31.0953L29.9994 28.5085L20.0996 31.0953C19.9386 31.1373 19.8597 31.25 19.827 31.3135C19.7945 31.3765 19.7489 31.5048 19.8061 31.6587L22.3748 38.1394C21.7645 38.1486 21.3195 38.2473 20.9562 38.377C20.6965 38.4696 20.4785 38.5782 20.2718 38.6811C19.8284 38.9018 19.4783 39.0762 18.7022 39.0762C18.3138 39.0762 17.999 39.391 17.999 39.7794C17.999 40.1677 18.3138 40.4825 18.7022 40.4825C19.809 40.4825 20.3879 40.1943 20.8985 39.9401C21.0975 39.841 21.278 39.7515 21.4863 39.6827C21.7422 39.5981 22.0403 39.545 22.4681 39.545C22.5658 39.545 22.6566 39.5478 22.7418 39.5531C23.3338 39.5897 23.6502 39.7472 24.0377 39.9401C24.5484 40.1944 25.1272 40.4826 26.2341 40.4826C27.3409 40.4826 27.9197 40.1944 28.4304 39.9401C28.8736 39.7194 29.2238 39.545 29.9998 39.545C30.7759 39.545 31.1259 39.7194 31.5692 39.9401C32.0799 40.1944 32.6587 40.4826 33.7655 40.4826C34.8723 40.4826 35.4511 40.1944 35.9617 39.9401C36.3505 39.7466 36.6677 39.5887 37.2632 39.5528C37.3468 39.5478 37.4357 39.545 37.5312 39.545C37.9543 39.545 38.2505 39.5971 38.5044 39.68C38.7163 39.7492 38.899 39.8398 39.1006 39.9401C39.6112 40.1944 40.19 40.4826 41.2968 40.4826C41.6852 40.4826 42 40.1677 42 39.7794C42 39.3911 41.6851 39.0762 41.2967 39.0762ZM23.4987 32.107L29.8217 30.4549C29.9382 30.4244 30.0607 30.4244 30.1772 30.4549L36.5002 32.107C36.8759 32.2052 37.1009 32.5894 37.0027 32.9651C36.9201 33.2812 36.635 33.4907 36.3229 33.4907C36.2641 33.4907 36.2043 33.4832 36.1447 33.4676L29.9994 31.862L23.8542 33.4676C23.4785 33.5658 23.0943 33.3408 22.9961 32.9651C22.898 32.5894 23.123 32.2052 23.4987 32.107Z" fill="#EE950F" fill-opacity="1.0"/>
    </g>
    <path d="M270 18C263.383 18 258 23.3829 258 30C258 36.6171 263.383 42 270 42C276.617 42 282 36.6171 282 30C282 23.3829 276.617 18 270 18Z" fill="#EE950F"/>
    <path d="M276.082 27.4565L269.581 33.9564C269.386 34.1514 269.13 34.2496 268.875 34.2496C268.619 34.2496 268.363 34.1514 268.168 33.9564L264.918 30.7065C264.526 30.3156 264.526 29.6835 264.918 29.2925C265.309 28.9014 265.94 28.9014 266.332 29.2925L268.875 31.8355L274.668 26.0426C275.059 25.6515 275.69 25.6515 276.082 26.0426C276.472 26.4335 276.472 27.0654 276.082 27.4565Z" fill="#FAFAFA"/>
    <defs>
        <clipPath id="clip0_0_2432">
            <rect width="24" height="24" fill="white" transform="translate(18 18)"/>
        </clipPath>
    </defs>
</svg>